<svg width="41" height="41" viewBox="0 0 41 41" fill="none" xmlns="http://www.w3.org/2000/svg">
<path fill-rule="evenodd" clip-rule="evenodd" d="M20.5 41C31.8218 41 41 31.8218 41 20.5C41 9.17816 31.8218 0 20.5 0C9.17816 0 0 9.17816 0 20.5C0 31.8218 9.17816 41 20.5 41ZM19.0431 4.91667H21.9598V9.29167H19.0431V4.91667ZM16.1265 26.7917L11.7515 22.4167V15.125H29.2515V22.4167L24.8765 26.7917V34.0833H16.1265V26.7917ZM26.3348 18.0417H14.6681V21.2062L19.0431 25.5812V31.1667H21.9598V25.5812L26.3348 21.2062V18.0417ZM10.1703 8.50329L8.10884 10.5665L11.2037 13.6588L13.2652 11.5955L10.1703 8.50329ZM27.7345 11.5993L30.8303 8.50796L32.8912 10.5718L29.7954 13.6632L27.7345 11.5993Z" fill="white"/>
</svg>
